<?xml version="1.0" standalone="no"?>
<!DOCTYPE svg PUBLIC "-//W3C//DTD SVG 20010904//EN"
 "http://www.w3.org/TR/2001/REC-SVG-20010904/DTD/svg10.dtd">
<svg version="1.0" xmlns="http://www.w3.org/2000/svg"
 width="492.000000pt" height="507.000000pt" viewBox="0 0 492.000000 507.000000"
 preserveAspectRatio="xMidYMid meet">

<g transform="translate(0.000000,507.000000) scale(0.100000,-0.100000)"
fill="#000000" stroke="none">
<path d="M2215 5023 c-60 -21 -122 -46 -137 -56 -37 -25 -59 -27 -83 -9 -12
10 -15 11 -7 2 20 -23 14 -37 -20 -44 -26 -5 -30 -9 -18 -16 11 -7 7 -10 -17
-10 -18 0 -33 -4 -33 -10 0 -5 7 -10 15 -10 20 0 19 -16 -1 -24 -8 -3 -12 -10
-9 -16 3 -5 -5 -15 -19 -21 -48 -22 -92 -106 -155 -299 -16 -47 -33 -107 -39
-135 -12 -64 -7 -291 7 -309 8 -10 8 -35 0 -92 -14 -95 -19 -226 -11 -274 5
-31 7 -27 18 39 23 136 33 149 54 70 9 -34 9 -44 -4 -58 -23 -25 -21 -116 2
-138 11 -12 16 -30 14 -53 -1 -19 -4 -48 -5 -65 -1 -16 3 -42 10 -56 14 -30 9
-39 -20 -39 -16 0 -17 -3 -7 -15 7 -8 21 -15 32 -15 15 0 19 -5 15 -20 -3 -10
0 -21 7 -23 8 -3 8 -13 -2 -38 -8 -22 -9 -35 -2 -37 5 -2 10 -13 10 -23 0 -11
-4 -18 -9 -15 -5 4 -8 -5 -7 -19 2 -13 -1 -22 -5 -19 -5 3 -9 -2 -9 -10 0 -8
9 -18 20 -21 11 -4 18 -11 15 -16 -4 -5 1 -9 10 -9 9 0 13 -5 10 -10 -4 -6 -2
-17 4 -23 7 -9 6 -21 -4 -40 -8 -15 -10 -25 -5 -22 6 4 13 -1 16 -9 3 -9 11
-16 16 -16 14 0 47 -42 48 -61 0 -8 7 -24 15 -35 23 -31 18 -54 -15 -66 -44
-15 -177 -83 -239 -123 -30 -19 -75 -42 -100 -51 -98 -36 -155 -66 -215 -113
-66 -52 -193 -131 -251 -155 -19 -8 -89 -56 -156 -106 -67 -50 -145 -105 -173
-121 -47 -28 -56 -41 -116 -156 -36 -69 -88 -165 -115 -212 -70 -118 -78 -142
-119 -337 -47 -224 -54 -281 -66 -550 -5 -126 -15 -341 -21 -479 -7 -137 -11
-276 -10 -307 3 -68 -9 -94 -52 -112 -28 -12 286 -14 2276 -15 1536 -1 2306 2
2302 9 -4 6 -65 10 -150 10 -163 0 -170 3 -139 76 35 81 11 217 -52 300 l-28
37 -2 181 c-1 99 -6 210 -12 246 -6 36 -13 146 -16 245 -7 289 -46 518 -122
723 -45 120 -143 326 -176 369 -54 71 -181 162 -323 233 -77 38 -261 133 -410
211 -349 183 -379 198 -387 192 -15 -8 -8 -45 12 -70 24 -31 25 -64 5 -163
-24 -119 -29 -126 -128 -192 -107 -71 -146 -91 -209 -108 -38 -10 -51 -10 -63
0 -17 14 -9 35 29 71 14 13 26 31 26 39 0 8 13 40 30 70 16 30 29 63 30 73 0
9 7 17 15 17 8 0 14 3 14 8 -5 28 4 50 21 55 11 3 24 16 29 30 5 14 27 42 48
64 21 21 37 46 35 55 -2 9 6 21 16 27 19 10 64 75 67 96 1 6 6 23 13 38 7 16
12 33 12 40 0 6 13 25 29 42 26 26 31 40 37 110 3 44 6 99 6 123 -1 23 4 42 9
42 6 0 8 4 4 9 -3 6 -3 28 1 50 6 35 10 41 31 41 14 0 21 4 18 10 -4 6 -11 7
-17 4 -7 -5 -9 0 -6 14 4 13 1 22 -5 22 -8 0 -8 3 0 11 7 7 8 21 3 39 -5 16
-6 31 -2 34 3 3 5 22 4 41 -1 22 4 38 15 43 23 14 16 127 -9 143 -7 4 -5 22 5
50 l15 44 16 -37 c9 -21 16 -45 16 -53 0 -9 4 -13 10 -10 7 5 8 95 1 136 -1 4
-10 9 -22 12 -17 5 -19 9 -10 26 7 12 7 22 2 26 -13 7 -6 85 13 143 17 53 27
264 15 327 -4 22 -15 78 -25 125 -9 47 -18 105 -19 130 -3 39 -9 50 -52 88
-54 49 -122 83 -200 102 -46 10 -53 16 -63 44 -6 18 -23 44 -38 57 -24 21 -25
21 -8 2 10 -12 16 -29 13 -37 -5 -14 -10 -14 -42 0 -20 8 -53 14 -74 13 -39
-3 -65 7 -56 21 3 5 1 11 -5 15 -6 4 -7 12 -3 18 4 7 -1 6 -11 -2 -9 -8 -16
-10 -15 -5 4 25 -5 29 -53 28 -29 -1 -71 5 -93 13 -84 29 -141 26 -260 -14z
m178 10 c-7 -2 -19 -2 -25 0 -7 3 -2 5 12 5 14 0 19 -2 13 -5z m-303 -724 c36
-6 121 -12 190 -14 103 -2 135 0 180 16 63 22 149 24 202 5 21 -8 35 -10 32
-5 -7 12 11 11 58 -3 32 -9 44 -9 71 4 37 18 53 13 98 -29 16 -15 39 -24 63
-25 37 -1 64 -27 51 -48 -3 -5 0 -12 8 -17 55 -35 85 -336 59 -598 -14 -142
-20 -175 -33 -175 -5 0 -9 -9 -9 -19 0 -11 -5 -23 -12 -27 -7 -4 -8 -3 -4 4 5
8 0 12 -13 12 -21 0 -65 -53 -53 -64 4 -4 0 -6 -8 -4 -8 2 -14 -3 -13 -9 2 -7
-1 -13 -6 -13 -6 0 -9 9 -8 20 1 11 4 20 8 20 3 0 6 14 7 30 0 17 -3 28 -8 25
-5 -3 -26 9 -47 28 -67 60 -195 158 -200 153 -5 -4 -11 -31 -12 -53 -2 -30
-32 -43 -97 -41 -38 1 -69 -3 -76 -10 -19 -19 -99 -14 -131 7 -20 13 -41 17
-70 14 -55 -5 -68 5 -70 54 -1 49 -13 48 -72 -7 -22 -20 -67 -54 -100 -75 -33
-22 -68 -48 -78 -58 -21 -20 -84 -18 -98 4 -5 8 -9 10 -9 5 0 -5 -7 -3 -15 4
-8 7 -15 9 -15 4 0 -5 -5 -2 -10 6 -4 9 -11 54 -15 100 -4 47 -10 99 -15 115
-15 54 -20 178 -11 295 7 97 13 124 37 170 15 30 28 58 29 62 0 3 3 10 8 14 4
4 7 21 7 37 0 21 6 30 20 34 12 3 19 11 17 17 -3 6 5 21 17 34 16 18 28 22 51
18 16 -3 59 -11 95 -17z m1100 -423 c0 -3 -4 -8 -10 -11 -5 -3 -10 -1 -10 4 0
6 5 11 10 11 6 0 10 -2 10 -4z m-958 -391 c-2 -11 -7 -21 -11 -23 -3 -1 -6
-20 -4 -42 1 -22 -2 -42 -7 -45 -6 -3 -7 1 -3 11 4 12 2 15 -8 12 -8 -3 -13
-10 -12 -15 1 -5 -7 -10 -19 -10 -13 -1 -18 3 -14 13 3 8 1 14 -4 14 -18 0
-10 23 23 66 33 45 65 55 59 19z m525 3 c20 -23 33 -49 39 -77 1 -8 5 -25 8
-37 5 -20 4 -21 -18 -11 -20 10 -54 54 -56 75 -1 4 -7 17 -15 28 -10 16 -11
24 -2 33 15 15 21 14 44 -11z m-47 -38 c0 -5 -5 -10 -11 -10 -5 0 -7 5 -4 10
3 6 8 10 11 10 2 0 4 -4 4 -10z m-585 -47 c-2 -10 -4 -19 -4 -21 -1 -2 -6 0
-11 3 -8 5 -7 11 1 21 15 18 18 18 14 -3z m-125 -103 c-12 -23 -16 -24 -26 -8
-4 6 -3 8 3 5 6 -4 13 0 17 8 3 8 8 15 11 15 3 0 1 -9 -5 -20z m529 -23 c12
-10 7 -13 -25 -17 -21 -3 -52 -1 -68 4 l-29 9 29 12 c32 13 71 10 93 -8z
m-209 -61 c0 -20 -26 -40 -35 -26 -10 16 2 40 20 40 8 0 15 -6 15 -14z m310
-14 c1 -16 1 -16 11 1 15 26 29 21 29 -11 0 -27 -2 -29 -52 -31 -86 -5 -91 -5
-143 2 -130 17 -135 19 -135 38 0 17 10 18 130 17 72 -1 133 2 136 5 10 10 24
-2 24 -21z m-408 -41 c32 -36 139 -103 110 -68 -9 10 -10 17 -2 22 6 3 8 10 5
15 -3 5 -1 11 5 15 5 3 10 1 10 -4 0 -14 33 -14 47 0 12 12 33 4 33 -11 0 -5
-8 -11 -17 -13 -17 -4 -17 -5 -1 -6 10 0 22 7 27 18 11 20 61 18 61 -3 0 -7 3
-6 8 2 5 7 16 10 26 6 11 -4 13 -10 7 -18 -7 -8 1 -10 31 -8 38 4 39 3 29 -16
-15 -28 -14 -45 2 -35 6 4 17 8 22 8 27 3 86 38 102 61 27 39 54 66 60 60 9
-9 -8 -106 -18 -100 -5 3 -9 -4 -9 -15 0 -13 -7 -21 -16 -21 -10 0 -14 -6 -10
-15 3 -8 0 -15 -5 -15 -7 0 -9 -9 -6 -21 4 -16 2 -19 -10 -15 -10 4 -13 2 -10
-7 4 -11 -5 -14 -36 -12 -23 1 -37 0 -30 -2 18 -6 4 -33 -18 -33 -10 0 -23 9
-29 20 -10 18 -7 24 13 21 9 -1 9 13 0 22 -3 4 -12 -1 -19 -11 -7 -9 -14 -12
-14 -6 0 7 -9 14 -20 17 -23 6 -27 27 -5 27 17 0 19 9 6 28 -6 11 -10 10 -15
-3 -3 -10 -12 -15 -21 -11 -8 3 -15 2 -15 -3 0 -5 -15 -7 -34 -4 -28 3 -37 0
-46 -16 -6 -12 -15 -21 -21 -21 -6 0 -7 5 -3 12 4 7 3 8 -4 4 -7 -4 -12 -15
-12 -26 0 -10 -7 -20 -15 -24 -8 -3 -15 -1 -15 4 0 6 4 10 8 10 5 0 9 7 9 15
0 12 -6 10 -23 -6 -19 -18 -31 -21 -64 -16 -38 5 -40 4 -23 -10 10 -8 12 -12
6 -8 -8 4 -13 -1 -14 -12 -1 -17 -2 -17 -6 0 -2 9 -9 14 -15 11 -6 -4 -8 -2
-5 3 4 6 0 16 -9 23 -8 7 -13 19 -10 27 4 9 1 11 -6 7 -8 -5 -9 -2 -5 9 3 9
-1 23 -9 31 -8 9 -15 19 -14 23 0 4 -4 8 -9 8 -16 0 -25 15 -10 15 10 1 9 4
-4 11 -9 6 -15 14 -12 20 4 5 1 9 -5 9 -6 0 -8 10 -4 28 9 37 9 37 37 40 18 1
35 -9 59 -37z m420 -28 c-6 -2 -10 -9 -6 -14 3 -5 0 -9 -5 -9 -6 0 -11 7 -11
15 0 8 8 15 18 14 10 0 12 -3 4 -6z m-482 -77 c-7 -7 -13 -7 -20 0 -6 6 -3 10
10 10 13 0 16 -4 10 -10z m-265 -46 c3 -5 -1 -10 -9 -10 -8 0 -18 5 -21 10 -3
6 1 10 9 10 8 0 18 -4 21 -10z m582 -32 c-3 -8 -6 -5 -6 6 -1 11 2 17 5 13 3
-3 4 -12 1 -19z m103 -28 c0 -5 -2 -10 -4 -10 -3 0 -8 5 -11 10 -3 6 -1 10 4
10 6 0 11 -4 11 -10z m-250 -83 c0 -2 -10 -12 -22 -23 l-23 -19 19 23 c18 21
26 27 26 19z m-352 -101 c17 -19 28 -37 25 -40 -4 -3 0 -6 8 -6 9 0 25 -13 37
-30 13 -16 26 -29 30 -29 24 4 34 -3 28 -18 -4 -10 -4 -14 0 -10 4 4 12 -2 18
-12 49 -83 113 -164 165 -205 33 -27 58 -53 55 -57 -3 -5 7 -14 21 -19 20 -7
26 -16 23 -33 -2 -18 -10 -23 -42 -25 -22 -2 -50 -1 -62 2 -30 8 -82 58 -76
75 2 7 -5 15 -17 18 -17 4 -19 8 -10 19 9 11 8 15 -5 20 -9 3 -13 11 -10 16 4
6 0 14 -7 19 -19 12 -31 11 -23 -2 4 -8 -1 -9 -17 -5 -13 3 -18 3 -11 0 10 -5
9 -9 -4 -18 -14 -11 -15 -16 -4 -35 6 -13 9 -25 6 -28 -10 -11 -75 31 -119 75
l-42 43 2 117 1 117 -17 -53 c-15 -45 -19 -51 -30 -38 -7 8 -15 40 -18 71 -5
49 -3 59 17 80 31 33 41 32 78 -9z m462 24 c0 -5 -4 -10 -10 -10 -5 0 -10 5
-10 10 0 6 5 10 10 10 6 0 10 -4 10 -10z"/>
<path d="M2848 4055 c-2 -3 -29 -7 -58 -10 -30 -3 -57 -9 -60 -14 -3 -5 -29
-12 -58 -16 -37 -5 -55 -13 -63 -27 -8 -14 -14 -17 -21 -10 -8 8 -17 8 -32 0
-46 -25 -53 -55 -23 -98 9 -13 17 -35 17 -47 0 -49 127 -112 227 -113 52 0
103 16 103 32 0 4 6 8 13 8 8 0 19 11 25 25 7 14 22 29 34 34 39 15 69 51 63
72 -4 11 -2 19 5 19 8 0 8 6 0 21 -7 11 -9 27 -6 35 3 8 1 14 -5 14 -6 0 -8 4
-5 8 8 14 -71 53 -107 54 -17 1 -35 5 -38 10 -3 4 -8 6 -11 3z m-12 -213 c-18
-18 -29 -12 -20 11 3 9 12 13 21 10 13 -5 13 -8 -1 -21z"/>
<path d="M2005 4005 c-48 -26 -113 -85 -94 -85 9 -1 8 -4 -3 -11 -10 -5 -18
-19 -18 -29 0 -10 -4 -21 -10 -25 -13 -8 -1 -35 16 -35 7 0 18 -8 23 -19 7
-11 26 -20 53 -24 23 -3 47 -12 53 -19 43 -57 129 -64 238 -18 75 31 137 78
137 104 0 8 9 30 20 49 l20 34 -27 32 c-15 17 -37 31 -49 31 -12 0 -25 6 -27
13 -4 9 -6 9 -6 -1 -1 -10 -6 -10 -21 -2 -31 16 -207 32 -215 19 -3 -4 -16 -5
-28 0 -15 5 -34 1 -62 -14z m160 -205 c3 -5 2 -10 -4 -10 -5 0 -13 5 -16 10
-3 6 -2 10 4 10 5 0 13 -4 16 -10z"/>
<path d="M2693 3045 c0 -8 4 -15 9 -15 4 0 8 7 8 15 0 8 -4 15 -8 15 -5 0 -9
-7 -9 -15z"/>
<path d="M2305 2990 c-3 -5 -1 -10 4 -10 6 0 11 5 11 10 0 6 -2 10 -4 10 -3 0
-8 -4 -11 -10z"/>
<path d="M2006 2695 c4 -8 8 -15 10 -15 2 0 4 7 4 15 0 8 -4 15 -10 15 -5 0
-7 -7 -4 -15z"/>
<path d="M2086 2615 c-9 -26 -7 -32 5 -12 6 10 9 21 6 23 -2 3 -7 -2 -11 -11z"/>
<path d="M1730 3580 c6 -11 13 -20 16 -20 2 0 0 9 -6 20 -6 11 -13 20 -16 20
-2 0 0 -9 6 -20z"/>
</g>
</svg>
